# xmcd CD database file
#
# Track frame offsets:
#	150
#	35880
#	55617
#	86727
#	124135
#	150565
#	182467
#
# Disc length: 2999 seconds
#
# Revision: 0
# Processed by: cddbd v1.5.2PL0 Copyright (c) Steve Scherf et al.
# Submitted via: CDex 1.70beta2
#
DISCID=530bb507
DTITLE=Cyrille Bugnon Quartett - Southern Perspective
DYEAR=1995
DGENRE=Jazz
TTITLE0=Jook Joint Blues
TTITLE1=Black Nile
TTITLE2=Tribulations of aCat in Dog-City
TTITLE3=Spring can really hang you up the most
TTITLE4=Southern Perspective
TTITLE5=Upper Manhatten Medical Group
TTITLE6=Magnetic Fields
EXTD=YEAR: 1995
EXTT0=
EXTT1=
EXTT2=
EXTT3=
EXTT4=
EXTT5=
EXTT6=
PLAYORDER=
